<mxfile host="app.diagrams.net" modified="2021-06-12T14:49:12.041Z" agent="5.0 (Windows NT 10.0; Win64; x64) AppleWebKit/537.36 (KHTML, like Gecko) Chrome/91.0.4472.77 Safari/537.36 Edg/91.0.864.41" etag="ZG8847nEDcQBhINV1nMX" version="14.7.0" type="github">
  <diagram id="prtHgNgQTEPvFCAcTncT" name="Page-1">
    <mxGraphModel dx="1550" dy="867" grid="1" gridSize="10" guides="1" tooltips="1" connect="1" arrows="1" fold="1" page="1" pageScale="1" pageWidth="827" pageHeight="1169" math="0" shadow="0">
      <root>
        <mxCell id="0" />
        <mxCell id="1" parent="0" />
        <mxCell id="0cfOJmIWYBaw7dlhaxRY-5" value="Pool" style="swimlane;html=1;childLayout=stackLayout;resizeParent=1;resizeParentMax=0;startSize=20;horizontal=0;horizontalStack=1;" vertex="1" parent="1">
          <mxGeometry x="20" y="80" width="680" height="640" as="geometry" />
        </mxCell>
        <mxCell id="0cfOJmIWYBaw7dlhaxRY-6" value="Sponsor" style="swimlane;html=1;startSize=20;" vertex="1" parent="0cfOJmIWYBaw7dlhaxRY-5">
          <mxGeometry x="20" width="220" height="640" as="geometry" />
        </mxCell>
        <mxCell id="0cfOJmIWYBaw7dlhaxRY-11" value="" style="ellipse;fillColor=#000000;strokeColor=none;" vertex="1" parent="0cfOJmIWYBaw7dlhaxRY-6">
          <mxGeometry x="80" y="40" width="30" height="30" as="geometry" />
        </mxCell>
        <mxCell id="0cfOJmIWYBaw7dlhaxRY-15" style="edgeStyle=orthogonalEdgeStyle;rounded=0;orthogonalLoop=1;jettySize=auto;html=1;exitX=0.5;exitY=1;exitDx=0;exitDy=0;entryX=0.5;entryY=0;entryDx=0;entryDy=0;" edge="1" parent="0cfOJmIWYBaw7dlhaxRY-6" source="0cfOJmIWYBaw7dlhaxRY-12" target="0cfOJmIWYBaw7dlhaxRY-13">
          <mxGeometry relative="1" as="geometry" />
        </mxCell>
        <mxCell id="0cfOJmIWYBaw7dlhaxRY-12" value="Log in" style="rounded=1;whiteSpace=wrap;html=1;" vertex="1" parent="0cfOJmIWYBaw7dlhaxRY-6">
          <mxGeometry x="60" y="80" width="70" height="40" as="geometry" />
        </mxCell>
        <mxCell id="0cfOJmIWYBaw7dlhaxRY-13" value="Input account information" style="rounded=1;whiteSpace=wrap;html=1;" vertex="1" parent="0cfOJmIWYBaw7dlhaxRY-6">
          <mxGeometry x="60" y="140" width="70" height="50" as="geometry" />
        </mxCell>
        <mxCell id="0cfOJmIWYBaw7dlhaxRY-7" value="System" style="swimlane;html=1;startSize=20;" vertex="1" parent="0cfOJmIWYBaw7dlhaxRY-5">
          <mxGeometry x="240" width="220" height="640" as="geometry" />
        </mxCell>
        <mxCell id="0cfOJmIWYBaw7dlhaxRY-16" value="Is the &#xa;account &#xa;information&#xa;Â correct" style="rhombus;" vertex="1" parent="0cfOJmIWYBaw7dlhaxRY-7">
          <mxGeometry y="180" width="100" height="100" as="geometry" />
        </mxCell>
        <mxCell id="0cfOJmIWYBaw7dlhaxRY-8" value="VAA" style="swimlane;html=1;startSize=20;" vertex="1" parent="0cfOJmIWYBaw7dlhaxRY-5">
          <mxGeometry x="460" width="220" height="640" as="geometry" />
        </mxCell>
        <mxCell id="0cfOJmIWYBaw7dlhaxRY-9" value="Vaccines&amp;nbsp;Advisory&amp;nbsp;Committee" style="swimlane;html=1;startSize=20;" vertex="1" parent="1">
          <mxGeometry x="700" y="80" width="220" height="640" as="geometry" />
        </mxCell>
        <mxCell id="0cfOJmIWYBaw7dlhaxRY-10" value="NSX and NSIC" style="swimlane;html=1;startSize=20;" vertex="1" parent="1">
          <mxGeometry x="920" y="80" width="220" height="640" as="geometry" />
        </mxCell>
      </root>
    </mxGraphModel>
  </diagram>
</mxfile>
